<svg width="155" height="156" viewBox="0 0 155 156" fill="none" xmlns="http://www.w3.org/2000/svg">
<path d="M77.5 0L144.5 39V117L77.5 156L10.5 117V39L77.5 0Z" fill="#D5E3F6"/>
<path d="M118.08 51.525L113.685 24.8922L127.264 23.8679L121.769 29.7775L121.298 50.8946L118.08 51.525Z" fill="white" stroke="#828282" stroke-linecap="round" stroke-linejoin="round"/>
<path d="M95.9454 53.9677L121.298 50.8947L121.848 43.094L114.391 45.3002L100.655 50.3431L95.9454 53.9677Z" fill="white" stroke="#828282" stroke-linecap="round" stroke-linejoin="round"/>
<path d="M117.138 41.5179L123.575 44.8273L121.298 30.9593L123.025 28.8319L120.278 24.0254L111.879 24.7346L117.138 41.5179Z" fill="white" stroke="#828282" stroke-linecap="round" stroke-linejoin="round"/>
<path d="M113.841 52.3918L117.06 52.8645C117.06 52.8645 120.749 52.0766 122.083 50.2643C123.417 48.452 121.769 43.094 121.769 43.094L116.432 49.1612L113.841 52.3918Z" fill="white" stroke="#828282" stroke-linecap="round" stroke-linejoin="round"/>
<path d="M135.584 15.5947L154.5 21.9771L140.764 24.6561L141.078 27.2564L123.26 39.3908L105.835 54.9922L98.2217 50.6585L98.7711 49.3978L118.708 35.2935L132.836 20.5588L135.584 15.5947Z" fill="white" stroke="#828282" stroke-linecap="round" stroke-linejoin="round"/>
<path d="M125.223 36.633L120.199 40.6515L119.65 43.6457L127.813 36.5542L125.223 36.633Z" fill="white" stroke="#828282" stroke-linecap="round" stroke-linejoin="round"/>
<path d="M60.3104 62.4773L84.2502 47.7427L110.702 49.7125L103.559 70.2781L60.3104 62.4773Z" fill="white" stroke="#828282" stroke-linecap="round" stroke-linejoin="round"/>
<path d="M104.265 75.3212L111.879 61.0594L110.701 49.7129L99.3202 77.0547L104.265 75.3212Z" fill="white" stroke="#828282" stroke-linecap="round" stroke-linejoin="round"/>
<path d="M30.9545 61.3744L88.4102 52.9434L123.888 64.8414L30.9545 61.3744Z" fill="white" stroke="#828282" stroke-linecap="round" stroke-linejoin="round"/>
<path d="M60.31 62.4774L45.8676 10L63.1357 32.2202L75.6158 59.0892L60.31 62.4774Z" fill="white" stroke="#828282" stroke-linecap="round" stroke-linejoin="round"/>
<path d="M68.0807 58.38L53.6383 19.8494L63.1357 32.2202L76.1653 57.9073L68.0807 58.38Z" fill="white" stroke="#828282" stroke-linecap="round" stroke-linejoin="round"/>
<path d="M76.1651 61.6896L86.526 48.2157C86.526 48.2157 92.0989 41.7545 96.4944 45.3003C100.89 48.8461 96.4159 51.0523 96.4159 51.0523L86.2905 60.8229L76.1651 61.6896Z" fill="white" stroke="#828282" stroke-linecap="round" stroke-linejoin="round"/>
<path d="M109.367 14.0186L82.6799 64.3685L98.6921 56.6466L107.64 31.8262L109.367 14.0186Z" fill="white" stroke="#828282" stroke-linecap="round" stroke-linejoin="round"/>
<path d="M108.19 24.1042L92.0992 59.6408L98.6924 56.6466L107.64 31.8262L108.19 24.1042Z" fill="white" stroke="#828282" stroke-linecap="round" stroke-linejoin="round"/>
<path d="M2.69788 123.386C3.4043 123.386 27.1872 120.076 27.1872 120.076L36.6062 140.012L15.4135 136.623L2.69788 123.386Z" fill="white" stroke="#828282" stroke-linecap="round" stroke-linejoin="round"/>
<path d="M44.141 90.2131L51.9116 105.893L36.5273 140.012L27.1083 120.076L44.141 90.2131Z" fill="white" stroke="#828282" stroke-linecap="round" stroke-linejoin="round"/>
<path d="M44.1409 90.2131L51.9115 105.893L36.5272 140.012L27.1082 120.076L44.1409 90.2131Z" fill="white" stroke="#828282" stroke-linecap="round" stroke-linejoin="round"/>
<path d="M2.69781 123.386L28.2075 94.9408L44.1413 90.2131L27.1086 120.076L2.69781 123.386Z" fill="white" stroke="#828282" stroke-linecap="round" stroke-linejoin="round"/>
<path d="M21.5355 123.622L15.6487 135.914L21.614 138.751L27.5009 132.683L21.5355 123.622Z" fill="white" stroke="#828282" stroke-linecap="round" stroke-linejoin="round"/>
<path d="M21.5357 123.622L10.9393 125.671L0.5 136.781L13.1371 134.732L21.5357 123.622Z" fill="white" stroke="#828282" stroke-linecap="round" stroke-linejoin="round"/>
<path d="M0.5 136.781L5.91588 143.715L20.7508 146L23.341 140.957L14.236 132.999L0.5 136.781Z" fill="white" stroke="#828282" stroke-linecap="round" stroke-linejoin="round"/>
<path d="M21.5357 123.622L14.236 132.999L15.1779 143.084L20.7507 146L26.0097 135.756L21.5357 123.622Z" fill="white" stroke="#828282" stroke-linecap="round" stroke-linejoin="round"/>
<path d="M21.5356 123.78L28.9138 132.526L27.4224 143.951L21.6141 142.69L25.9311 135.914L21.5356 123.78Z" fill="white" stroke="#828282" stroke-linecap="round" stroke-linejoin="round"/>
<path d="M9.36908 137.175L12.1163 144.188" stroke="#828282" stroke-miterlimit="10" stroke-linecap="round" stroke-linejoin="round"/>
<path d="M4.97345 139.775L9.13348 144.188" stroke="#828282" stroke-miterlimit="10" stroke-linecap="round" stroke-linejoin="round"/>
<path d="M20.7504 146L25.9308 135.914" stroke="#828282" stroke-miterlimit="10" stroke-linecap="round" stroke-linejoin="round"/>
<path d="M123.103 104.002L136.604 81.8611L124.123 81.2307L104.108 98.9596L123.103 104.002Z" fill="white" stroke="#828282" stroke-linecap="round" stroke-linejoin="round"/>
<path d="M104.108 97.7778L123.103 101.796L124.673 122.283L108.582 116.373L104.108 97.7778Z" fill="white" stroke="#828282" stroke-linecap="round" stroke-linejoin="round"/>
<path d="M111.879 102.663L102.852 113.694L93.512 107.47L103.873 101.481L111.879 102.663Z" fill="white" stroke="#828282" stroke-linecap="round" stroke-linejoin="round"/>
<path d="M111.879 102.663L104.344 87.6919L99.5557 94.7047L107.091 106.997L111.879 102.663Z" fill="white" stroke="#828282" stroke-linecap="round" stroke-linejoin="round"/>
<path d="M111.879 102.663L116.353 112.906L107.326 123.15L102.852 113.694L111.879 102.663Z" fill="white" stroke="#828282" stroke-linecap="round" stroke-linejoin="round"/>
<path d="M93.512 107.47L94.5323 112.276L97.2011 113.143L100.184 119.131L107.326 123.15L103.088 112.355L93.512 107.47Z" fill="white" stroke="#828282" stroke-linecap="round" stroke-linejoin="round"/>
<path d="M124.673 122.283L138.173 97.4627L136.604 81.8613L123.103 101.796L124.673 122.283Z" fill="white" stroke="#828282" stroke-linecap="round" stroke-linejoin="round"/>
<path d="M124.673 122.283L138.173 97.4625L136.603 81.8611L123.103 101.796L124.673 122.283Z" fill="white" stroke="#828282" stroke-linecap="round" stroke-linejoin="round"/>
<path d="M94.5326 112.276L101.204 114.64" stroke="#828282" stroke-miterlimit="10" stroke-linecap="round" stroke-linejoin="round"/>
<path d="M30.9545 61.3745L64.0779 87.1404L90.5295 91.0014L123.888 64.8415L76.4011 62.714L30.9545 61.3745Z" fill="white" stroke="#828282" stroke-linecap="round" stroke-linejoin="round"/>
<path d="M55.2868 62.0049C55.5223 62.7928 64.6273 85.2494 64.6273 85.2494L86.5264 90.3711L99.399 63.8959L76.4795 62.714L55.2868 62.0049Z" fill="white" stroke="#828282" stroke-linecap="round" stroke-linejoin="round"/>
<path d="M93.8255 77.6849L95.7878 75.0059L94.3749 65.2353L89.1945 62.7139L93.8255 77.6849Z" fill="white" stroke="#828282" stroke-linecap="round" stroke-linejoin="round"/>
<path d="M63.0573 57.9863L64.3916 63.4232L67.4528 63.2656L63.0573 57.9863Z" fill="white" stroke="#828282" stroke-linecap="round" stroke-linejoin="round"/>
<path d="M93.6687 73.1935C94.2966 82.3337 86.9969 90.2131 77.421 90.8435C67.845 91.4739 59.6034 84.5399 58.9755 75.3997C58.3476 66.2595 62.3506 58.5376 71.9266 57.9072C81.5025 57.3557 93.0408 64.0533 93.6687 73.1935Z" fill="white" stroke="#828282" stroke-linecap="round" stroke-linejoin="round"/>
<path d="M61.4876 79.103C61.4876 79.103 64.3132 87.4553 74.2816 89.9767C84.25 92.4981 91.9422 87.1401 91.9422 87.1401C91.9422 87.1401 94.6894 81.782 94.4539 77.3695C94.14 73.0358 92.8056 68.3081 92.8056 68.3081L84.721 74.0601L73.6537 76.2664L64.2347 72.2479L60.7026 75.7936L61.4876 79.103Z" fill="white" stroke="#828282" stroke-linecap="round" stroke-linejoin="round"/>
<path d="M61.4869 79.103C61.4869 79.103 64.3126 87.4553 74.281 89.9767C84.2494 92.4981 91.9416 87.1401 91.9416 87.1401C91.9416 87.1401 94.6888 81.782 94.4533 77.3695C94.1393 73.0358 92.8049 68.3081 92.8049 68.3081L84.7203 74.0601L73.6531 76.2664L63.5277 75.0844L60.7805 75.8724L61.4869 79.103Z" fill="white" stroke="#828282" stroke-linecap="round" stroke-linejoin="round"/>
<path d="M75.7728 77.9999L80.3253 90.7647L90.6077 88.4796L89.0378 74.8481L87.311 73.2722L77.2641 75.5573L75.7728 77.9999Z" fill="white" stroke="#828282" stroke-miterlimit="10" stroke-linecap="round" stroke-linejoin="round"/>
<path d="M89.0375 74.8482C89.0375 74.8482 87.7817 62.1622 79.9326 58.774C73.1038 55.9374 72.7113 56.4102 72.7113 56.4102L63.1354 57.9861C63.1354 57.9861 73.9672 70.5145 75.851 78L89.0375 74.8482Z" fill="white" stroke="#828282" stroke-linecap="round" stroke-linejoin="round"/>
<path d="M90.3722 85.8008L80.0113 88.6374L80.5607 98.014L93.9043 93.5227L90.3722 85.8008Z" fill="white" stroke="#828282" stroke-linecap="round" stroke-linejoin="round"/>
<path d="M63.2139 82.1762C63.2139 82.1762 67.9234 89.4253 76.4005 90.2921C81.11 90.7648 80.482 97.9352 80.482 97.9352C80.482 97.9352 65.2547 93.1287 60.3882 82.4126C55.5217 71.7753 63.2139 82.1762 63.2139 82.1762Z" fill="white" stroke="#828282" stroke-linecap="round" stroke-linejoin="round"/>
<path d="M75.7725 78L75.0661 74.3754L63.5279 72.0903L64.8623 75.0845L75.7725 78Z" fill="white" stroke="#828282" stroke-linecap="round" stroke-linejoin="round"/>
<path d="M92.4912 66.7322L92.3343 61.453L84.7206 60.9802L89.5085 70.1992L92.4912 66.7322Z" fill="white" stroke="#828282" stroke-linecap="round" stroke-linejoin="round"/>
<path d="M74.2027 74.2178L73.5748 66.4959L67.5309 66.2595L68.0019 73.6663L73.8888 75.6361L74.2027 74.2178Z" fill="white" stroke="#828282" stroke-linecap="round" stroke-linejoin="round"/>
<path d="M92.3347 61.453L84.0146 60.665L88.9596 63.1865L92.3347 61.453Z" fill="white" stroke="#828282" stroke-linecap="round" stroke-linejoin="round"/>
<path d="M61.2518 69.8057C60.9378 69.8057 60.6239 69.8845 60.3099 70.0421L57.4057 71.9331L57.8766 75.0061C57.7196 76.4245 57.7981 78.0003 58.0336 79.5762C58.2691 80.6794 58.5831 81.7037 59.054 82.4917L59.368 84.6979L62.2722 85.4859V85.4071C62.5077 85.4859 62.7431 85.4859 62.9001 85.4859C64.7054 85.3283 65.9612 82.8068 65.9612 79.0247C66.0397 74.297 63.9205 69.6481 61.2518 69.8057Z" fill="white" stroke="#828282" stroke-linecap="round" stroke-linejoin="round"/>
<path d="M63.214 79.0248C63.4494 82.3342 62.2721 84.698 60.6238 84.8556C58.9754 85.0132 57.0917 82.807 56.3853 79.4976C55.4434 75.479 56.0713 71.6969 58.3475 71.6181C60.6238 71.5393 62.9 74.8486 63.214 79.0248Z" fill="white" stroke="#828282" stroke-linecap="round" stroke-linejoin="round"/>
<path d="M61.9595 82.2626C62.8982 82.0935 63.355 80.2548 62.9796 78.156C62.6043 76.0571 61.539 74.4928 60.6003 74.662C59.6616 74.8311 59.2049 76.6697 59.5802 78.7686C59.9556 80.8674 61.0208 82.4318 61.9595 82.2626Z" fill="white" stroke="#828282" stroke-linecap="round" stroke-linejoin="round"/>
<path d="M75.7728 90.6861L80.5608 98.0141L80.0113 88.6375L75.7728 90.6861Z" fill="white" stroke="#828282" stroke-linecap="round" stroke-linejoin="round"/>
<path d="M73.5747 66.4962L66.5105 62.2412L67.5309 66.2597L73.5747 66.4962Z" fill="white" stroke="#828282" stroke-linecap="round" stroke-linejoin="round"/>
<path d="M90.3721 85.8008L93.3547 86.1948L93.9042 93.5227L90.3721 85.8008Z" fill="white" stroke="#828282" stroke-linecap="round" stroke-linejoin="round"/>
<path d="M94.3752 74.8481L96.259 78.7879L93.9042 93.5225L91.942 86.6674C91.942 86.6674 93.7472 85.8794 94.3752 76.424V74.8481Z" fill="white" stroke="#828282" stroke-linecap="round" stroke-linejoin="round"/>
<path d="M88.3311 71.145L89.0376 74.8483L93.59 69.6479V66.1809L88.3311 71.145Z" fill="white" stroke="#828282" stroke-linecap="round" stroke-linejoin="round"/>
<path d="M89.4303 70.4358L88.9594 63.1866L92.3345 61.4531L92.8054 68.3083L89.4303 70.4358Z" fill="white" stroke="#828282" stroke-linecap="round" stroke-linejoin="round"/>
<path d="M68.7869 67.5205L69.2579 73.3513L72.5545 73.9817L72.162 67.7569L68.7869 67.5205Z" fill="white" stroke="#828282" stroke-linecap="round" stroke-linejoin="round"/>
<path d="M69.0001 69.394L72.0001 70" stroke="#828282" stroke-miterlimit="10" stroke-linecap="round" stroke-linejoin="round"/>
<path d="M69.5 71.5L72 72" stroke="#828282" stroke-miterlimit="10" stroke-linecap="round" stroke-linejoin="round"/>
<path d="M92.0205 62.8713L92.256 67.4414L90.2937 69.3325L89.9012 63.9745L92.0205 62.8713Z" fill="white" stroke="#828282" stroke-linecap="round" stroke-linejoin="round"/>
<path d="M92.3055 66L90.5001 67.4183" stroke="#828282" stroke-miterlimit="10" stroke-linecap="round" stroke-linejoin="round"/>
<path d="M90.5001 65.1819L92.4624 64" stroke="#828282" stroke-miterlimit="10" stroke-linecap="round" stroke-linejoin="round"/>
<path d="M52.147 78L43.9054 90.6072L49.7923 101.638L58.4263 83.9096C57.7984 83.2793 57.1181 82.0711 56.8565 81.5458L52.147 78Z" fill="white" stroke="#828282"/>
<path d="M134.17 74.0603L113.763 72.8784L109.053 76.4242L120.827 83.9097C122.053 82.6789 122.74 82.3827 123.966 81.1519L129.461 81.5459L134.17 74.0603Z" fill="white" stroke="#828282"/>
</svg>
