<svg width="20" height="20" viewBox="0 0 20 20" fill="none" xmlns="http://www.w3.org/2000/svg">
<path d="M9.99012 1.66504C5.42313 1.66504 1.66492 5.42325 1.66492 9.99024C1.66492 14.5572 5.42313 18.3154 9.99012 18.3154C14.5571 18.3154 18.3153 14.5572 18.3153 9.99024C18.3153 5.42325 14.5571 1.66504 9.99012 1.66504ZM9.99012 16.6504C6.33646 16.6504 3.32996 13.6439 3.32996 9.99024C3.32996 6.33658 6.33646 3.33008 9.99012 3.33008C13.6438 3.33008 16.6503 6.33658 16.6503 9.99024C16.6503 13.6439 13.6438 16.6504 9.99012 16.6504Z" fill="white"/>
<path d="M8.27325 9.1317C8.72585 9.1317 9.09276 8.76479 9.09276 8.31219C9.09276 7.85958 8.72585 7.49268 8.27325 7.49268C7.82064 7.49268 7.45374 7.85958 7.45374 8.31219C7.45374 8.76479 7.82064 9.1317 8.27325 9.1317Z" fill="white"/>
<path d="M11.6434 9.1317C12.096 9.1317 12.4629 8.76479 12.4629 8.31219C12.4629 7.85958 12.096 7.49268 11.6434 7.49268C11.1908 7.49268 10.8239 7.85958 10.8239 8.31219C10.8239 8.76479 11.1908 9.1317 11.6434 9.1317Z" fill="white"/>
<path fill-rule="evenodd" clip-rule="evenodd" d="M11.6181 11.6184C10.7196 12.5169 9.26041 12.5169 8.36187 11.6184C8.04204 11.2985 7.52285 11.2985 7.20301 11.6184C6.88318 11.9382 6.88318 12.4574 7.20301 12.7772C8.74122 14.3154 11.2388 14.3154 12.777 12.7772C13.0968 12.4574 13.0968 11.9382 12.777 11.6184C12.4572 11.2985 11.938 11.2985 11.6181 11.6184Z" fill="white"/>
</svg>
