<svg width="113" height="25" viewBox="0 0 113 25" fill="none" xmlns="http://www.w3.org/2000/svg">
<g clip-path="url(#clip0_202_5)">
<path fill-rule="evenodd" clip-rule="evenodd" d="M111.49 7.50659L111.49 7.49657C111.49 3.19484 108.946 0 104.039 0C99.1556 0 96.5883 3.19483 96.5883 7.49657L96.5883 7.51464L96.5883 7.5327C96.5883 11.8457 99.1671 14.858 104.039 14.858C108.843 14.858 111.479 11.8344 111.49 7.5327L111.49 7.50659ZM104.039 2.74034C107.136 2.74034 108.392 4.80777 108.398 7.51457C108.392 10.2092 107.136 12.1063 104.039 12.1063C100.977 12.1063 99.6862 10.1978 99.6805 7.51427C99.6862 4.72837 100.977 2.74034 104.039 2.74034Z" fill="#A3AEBC"/>
<path d="M13.8407 12.2433L13.8233 12.262L13.8407 12.2793C12.3003 13.9452 10.2351 14.8695 7.74763 14.8695C2.6586 14.8695 0 11.8457 0 7.53264L1.57949e-05 7.51477L0 7.49657C0 3.17206 2.77269 0.0113921 7.77036 0.0113921C10.3605 0.0113921 12.3117 0.832935 13.8293 2.54452L13.8123 2.56148L13.8293 2.58056L11.7412 4.66869C10.8056 3.40212 9.50475 2.74032 7.77037 2.74032C4.49142 2.74032 3.09828 4.76248 3.09221 7.51457C3.09807 10.164 4.40059 12.1178 7.75902 12.1178C9.49338 12.1178 10.8512 11.4445 11.7983 10.2122L13.8407 12.2433Z" fill="#A3AEBC"/>
<path fill-rule="evenodd" clip-rule="evenodd" d="M21.189 0.193987L15.7464 11.8553L14.3999 14.6052H14.4176L14.3999 14.6413H17.2867L18.8842 11.2068H25.8673L27.4646 14.6413H30.2944L30.2775 14.6052H30.2944L23.5624 0.193965L21.189 0.193987ZM19.8583 8.82018H24.9388L24.7947 8.62802L22.4099 3.39068H22.3757L20.0024 8.62802L19.8583 8.82018Z" fill="#A3AEBC"/>
<path d="M41.2596 9.74437C40.8722 8.9924 40.28 8.46793 39.8011 8.25057C41.0783 7.66809 42.2523 6.27677 42.2523 4.74863L42.2523 4.72788L42.2523 4.71241C42.2523 1.63169 39.6051 0.205373 36.7297 0.205373H29.7466V2.94578H36.7297C38.3071 2.94578 39.1622 3.57783 39.1714 4.7971C39.1628 5.72668 38.4081 6.59528 36.6156 6.61792H29.7466V9.23284H35.3491C37.0264 9.23284 37.8365 9.73487 38.4298 10.8531L40.4038 14.6642H43.8041L43.7852 14.628H43.8041L41.2596 9.74437Z" fill="#A3AEBC"/>
<path d="M38.4853 17.8932H39.1141V23.9181H38.4114V19.4849H38.3966L37.9971 20.4445L36.1775 24H36.1626L34.3208 20.3998L33.951 19.4849H33.9362V23.9181H33.2334V17.8932H33.8622L35.8741 21.9098L36.17 22.6165H36.1849L36.4808 21.9098L38.4853 17.8932Z" fill="#A3AEBC"/>
<path d="M41.3702 17.8932H42.073V23.9182H41.3702V17.8932Z" fill="#A3AEBC"/>
<path d="M49.2481 17.8932H48.5453V22.7355L48.5306 22.7355L48.0942 22.0586L44.9726 17.8932H44.329V23.9182H45.0317V19.0759H45.0465L45.5052 19.7825L48.6045 23.9182H49.248L49.2481 17.8932Z" fill="#A3AEBC"/>
<path d="M72.1416 17.8932H72.8444V23.9182H72.2008L69.1015 19.7825L68.6429 19.0759H68.6281V23.9182H67.9254V17.8932H68.5689L71.6905 22.0586L72.1269 22.7355L72.1416 22.7355V17.8932Z" fill="#A3AEBC"/>
<path d="M85.59 23.2487H82.1652L82.2392 23.1669V17.8932H81.5364V23.9181H85.59V23.2487Z" fill="#A3AEBC"/>
<path d="M57.5081 10.2693C57.5081 8.71183 56.7153 7.56212 55.5471 7.14742C56.4398 6.54184 56.8805 5.55321 56.8805 4.41764L56.8805 4.39965L56.8805 4.38156C56.8805 2.15655 55.169 0.216799 51.8486 0.216799H44.5802V2.95716H51.6775C53.2872 2.95716 53.8045 3.53154 53.8111 4.43415C53.8053 5.24819 53.4102 5.96756 51.6775 5.96756H44.5802V8.52539H51.9969C53.8573 8.52539 54.432 9.2809 54.4387 10.2539C54.4326 11.2365 53.947 11.9238 51.9969 11.9238L44.5802 11.9238V14.6641H51.9969C55.4428 14.6641 57.5081 13.0324 57.5081 10.3054L57.508 10.2881L57.5081 10.2693Z" fill="#A3AEBC"/>
<path d="M86.4219 14.6755H88.9892L88.9893 14.6394V0.171064H85.9542V9.77856H85.9199L84.9158 8.13546L78.3207 0.171082H75.7648V14.6755H78.7998V5.01098H78.8341L79.9067 6.71109L86.4219 14.6755Z" fill="#A3AEBC"/>
<path d="M94.4999 14.6754H91.4648V0.171147H94.4999V14.6754Z" fill="#A3AEBC"/>
<path fill-rule="evenodd" clip-rule="evenodd" d="M59.0483 7.54408C59.0483 11.8572 61.627 14.8695 66.4992 14.8695C71.303 14.8695 73.9502 11.8572 73.9502 7.54408L73.9502 7.52586L73.9502 7.50795C73.9502 3.20629 71.4056 0.0113755 66.4992 0.0113755C61.6156 0.0113755 59.0483 3.20628 59.0483 7.50795L59.0483 7.52604L59.0483 7.54408ZM66.4992 2.76316C63.4366 2.76316 62.1462 4.75121 62.1406 7.53711C62.1462 10.2206 63.4366 12.1291 66.4992 12.1291C69.5959 12.1291 70.8524 10.2321 70.858 7.53737C70.8524 4.83062 69.6073 2.76316 66.4992 2.76316Z" fill="#A3AEBC"/>
<path d="M26.2581 17.8933V18.5627L28.4476 18.5627C30.2525 18.5627 30.5484 19.6711 30.5484 20.9058C30.5484 22.1479 30.2673 23.2488 28.4846 23.2488L26.2581 23.2515V23.9182H28.5586C30.8739 23.9182 31.2733 22.3488 31.2733 20.9058C31.2733 19.4702 30.8664 17.8933 28.5216 17.8933H26.2581Z" fill="#A3AEBC"/>
<path d="M54.6482 18.5656V17.8931H57.3851C58.6573 17.8931 59.3601 18.6667 59.3601 19.7527C59.3601 20.794 58.6573 21.6123 57.3776 21.6123H55.3508V23.9181H54.6482V20.9466L57.3776 20.9428C58.2357 20.9428 58.6352 20.437 58.6352 19.7527C58.6352 19.0386 58.2357 18.5626 57.3851 18.5626L54.6482 18.5656Z" fill="#A3AEBC"/>
<path d="M75.0637 17.8932H79.465V18.5713H75.0637V17.8932Z" fill="#A3AEBC"/>
<path d="M79.465 23.2508H75.0637V23.9289H79.465V23.2508Z" fill="#A3AEBC"/>
<path d="M75.0637 20.5667H79.104V21.2448H75.0637V20.5667Z" fill="#A3AEBC"/>
<path fill-rule="evenodd" clip-rule="evenodd" d="M21.9794 17.8933H21.2282L18.5802 23.9182H19.3537L19.9934 22.4678L19.9562 22.3934H23.2513L23.2141 22.4678L23.8538 23.9182H24.6274L21.9794 17.8933ZM20.2761 21.724L20.3504 21.6496L21.4141 19.2322L21.6001 18.6297H21.6149L21.7934 19.2322L22.8571 21.6496L22.9315 21.724H20.2761Z" fill="#A3AEBC"/>
<path fill-rule="evenodd" clip-rule="evenodd" d="M62.8789 17.8933H63.6301L66.2781 23.9182H65.5045L64.8649 22.4678L64.902 22.3934H61.6069L61.6441 22.4678L61.0044 23.9182H60.2309L62.8789 17.8933ZM62.0011 21.6496L61.9268 21.724H64.5822L64.5078 21.6496L63.4441 19.2322L63.2656 18.6297H63.2508L63.0648 19.2322L62.0011 21.6496Z" fill="#A3AEBC"/>
<path fill-rule="evenodd" clip-rule="evenodd" d="M108.648 18H109.399L112.047 24.0249H111.274L110.634 22.5745L110.671 22.5001H107.376L107.413 22.5745L106.774 24.0249H106L108.648 18ZM107.77 21.7563L107.696 21.8307H110.351L110.277 21.7563L109.213 19.3389L109.035 18.7364H109.02L108.834 19.3389L107.77 21.7563Z" fill="#828282"/>
<path d="M106 18H101V18.6667H103.185L103.148 18.7407V24H103.852V18.7407L103.815 18.6667H106V18Z" fill="#828282"/>
<path d="M96 24H100V23.3333H96V24Z" fill="#828282"/>
<path d="M96 21.3333H99.6458V20.6667H96V21.3333Z" fill="#828282"/>
<path d="M96 18.6667H100V18H96V18.6667Z" fill="#828282"/>
<path d="M90 24H92.9141C94.2791 24 95 23.3407 95 22.2963C95 21.6296 94.6779 21.1185 94.0337 20.8444V20.8296C94.5245 20.5407 94.7316 20.1778 94.7316 19.6148C94.7316 18.763 94.1334 18 92.8451 18H90V18.6667H92.7684C93.566 18.6667 93.9801 18.9778 93.9801 19.6148C93.9801 20.1481 93.658 20.5778 92.7684 20.5778H90V21.2444H92.9064C93.8267 21.2444 94.2485 21.6444 94.2485 22.2963C94.2485 22.963 93.865 23.3333 92.9141 23.3333H90V24Z" fill="#828282"/>
</g>
<defs>
<clipPath id="clip0_202_5">
<rect width="112.047" height="24.0249" fill="white"/>
</clipPath>
</defs>
</svg>
